HIERARCHY
ROOT Hips
{
	OFFSET 0.000000 0.000000 0.000000 
	CHANNELS 6 Xposition Yposition Zposition Yrotation Zrotation Xrotation 
	JOINT Lumbar
	{
		OFFSET 0.000000 0.000000 0.000000 
		CHANNELS 3 Zrotation Xrotation Yrotation
		JOINT Neck
		{
			OFFSET 0.000000 0.445665 0.000000 
			CHANNELS 3 Zrotation Xrotation Yrotation
			End Site
			{
				OFFSET 0.000000 0.227535 0.000000 
			}
		}
		JOINT RightShoulder
		{
			OFFSET 0.019635 0.377685 0.194865 
			CHANNELS 3 Zrotation Xrotation Yrotation
			JOINT RightElbow
			{
				OFFSET 0.000000 -0.243375 0.000000 
				CHANNELS 2 Zrotation Yrotation
				JOINT RightWrist
				{
					OFFSET 0.000000 -0.264825 0.000000 
					CHANNELS 2 Zrotation Xrotation
					End Site
					{
						OFFSET 0.006600 -0.176220 0.000990 
					}
				}
			}
		}
		JOINT LeftShoulder
		{
			OFFSET 0.019635 0.377685 -0.194865 
			CHANNELS 3 Zrotation Xrotation Yrotation
			JOINT LeftElbow
			{
				OFFSET 0.000000 -0.243375 0.000000 
				CHANNELS 2 Zrotation Yrotation
				JOINT LeftWrist
				{
					OFFSET 0.000000 -0.264825 0.000000 
					CHANNELS 2 Zrotation Xrotation
					End Site
					{
						OFFSET 0.006600 -0.176220 -0.000990 
					}
				}
			}
		}
	}
	JOINT RightHip
	{
		OFFSET 0.052140 -0.069960 0.075570 
		CHANNELS 3 Zrotation Xrotation Yrotation
		JOINT RightKnee
		{
			OFFSET 0.000000 -0.402270 0.000000 
			CHANNELS 1 Zrotation
			JOINT RightAnkle
			{
				OFFSET 0.000000 -0.404085 0.000000 
				CHANNELS 3 Zrotation Xrotation Yrotation
				End Site
				{
					OFFSET 0.204105 -0.089430 0.008415 
				}
			}
		}
	}
	JOINT LeftHip
	{
		OFFSET 0.052140 -0.069960 -0.075570 
		CHANNELS 3 Zrotation Xrotation Yrotation
		JOINT LeftKnee
		{
			OFFSET 0.000000 -0.402270 0.000000 
			CHANNELS 1 Zrotation
			JOINT LeftAnkle
			{
				OFFSET 0.000000 -0.404085 0.000000 
				CHANNELS 3 Zrotation Xrotation Yrotation
				End Site
				{
					OFFSET 0.204105 -0.089430 -0.008415 
				}
			}
		}
	}
}
MOTION
Frames: 11
Frame Time: 0.02
-0.00203 -0.00033 0.00091 19.01623 -33.37416 -3.90338 53.70553 1.47155 2.72628 -2.44976 -9.36794 -0.92831 134.17199 -79.84596 -82.48669 16.29381 76.40954 -4.14627 -8.22355 133.10289 72.56096 87.14601 7.51255 -104.5025 -11.68122 7.33812 50.89885 0.33741 -6.10763 -20.23605 -7.86004 -3.97503 -4.23971 53.86212 3.84389 12.14646 -23.96992 -8.16647 2.98688 3.7636
-0.00172 -0.00029 0.00074 18.99338 -33.36585 -3.89035 53.77707 1.47095 2.70677 -2.49394 -9.36978 -0.92953 134.45108 -79.86117 -82.16298 16.34259 76.41883 -4.12225 -8.24668 134.19802 72.60628 87.14437 7.68221 -101.1959 -10.70199 7.5463 50.84716 0.25222 -6.53812 -20.20872 -7.82901 -3.94173 -4.22018 53.82484 3.84766 12.21372 -23.97055 -8.15654 2.98235 3.76135
-0.00141 -0.00025 0.00056 18.9706 -33.35753 -3.87734 53.84843 1.47037 2.68734 -2.5381 -9.37159 -0.93075 134.73033 -79.87637 -81.83908 16.39118 76.42813 -4.09835 -8.26974 135.29068 72.65151 87.14272 7.85139 -97.89939 -9.72545 7.75378 50.79551 0.16718 -6.96779 -20.18145 -7.79804 -3.9085 -4.20068 53.78756 3.85141 12.28095 -23.97118 -8.14662 2.97782 3.75909
-0.0011 -0.00022 0.00038 18.94781 -33.34924 -3.86436 53.91975 1.46977 2.66789 -2.58215 -9.37343 -0.93196 135.00877 -79.89155 -81.51613 16.4398 76.4374 -4.07442 -8.2928 136.38262 72.69671 87.14108 8.02054 -94.60295 -8.74917 7.96132 50.74396 0.08224 -7.39704 -20.1542 -7.76709 -3.8753 -4.1812 53.75037 3.85517 12.34809 -23.97181 -8.13672 2.9733 3.75684
-0.00079 -0.00018 0.00021 18.92497 -33.34099 -3.85136 53.99123 1.46914 2.64837 -2.62619 -9.37529 -0.93318 135.28657 -79.90672 -81.19393 16.48861 76.44664 -4.05036 -8.31595 137.47661 72.74198 87.13946 8.19015 -91.29646 -7.77038 8.16957 50.69241 -0.00279 -7.8269 -20.12691 -7.73609 -3.84206 -4.16169 53.71322 3.85892 12.41505 -23.97243 -8.12682 2.96879 3.7546
-0.00048 -0.00014 3e-05 18.90231 -33.33252 -3.83831 54.06234 1.46868 2.6291 -2.6706 -9.377 -0.9344 135.56877 -79.92197 -80.86656 16.53677 76.45605 -4.02678 -8.3388 138.56633 72.78712 87.13773 8.35841 -88.02114 -6.79864 8.37543 50.64057 -0.08785 -8.25612 -20.09966 -7.7052 -3.80886 -4.14223 53.6757 3.86266 12.48275 -23.97309 -8.11688 2.96423 3.75233
-0.00017 -0.0001 -0.00015 18.8793 -33.32449 -3.8254 54.1341 1.46788 2.60936 -2.71419 -9.37904 -0.93561 135.8421 -79.93706 -80.54963 16.58618 76.46513 -4.00228 -8.36225 139.66365 72.83247 87.13623 8.52922 -84.68687 -5.81373 8.58587 50.58937 -0.17277 -8.68622 -20.07236 -7.67411 -3.77559 -4.1227 53.63895 3.8665 12.54927 -23.97367 -8.10701 2.95975 3.7501
0.00014 -6e-05 -0.00032 18.85662 -33.31606 -3.81236 54.20529 1.46739 2.59004 -2.75858 -9.38073 -0.93683 136.12307 -79.95229 -80.22365 16.63444 76.4745 -3.97858 -8.38511 140.75357 72.87763 87.13453 8.69766 -81.40664 -4.84106 8.79209 50.53757 -0.2578 -9.1154 -20.04509 -7.64321 -3.7424 -4.10323 53.60151 3.87009 12.61617 -23.97432 -8.09712 2.95527 3.74786
0.00045 -2e-05 -0.00051 18.8343 -33.30711 -3.79915 54.2757 1.46729 2.57125 -2.80382 -9.38214 -0.93807 136.41581 -79.96774 -79.88397 16.68128 76.48428 -3.95606 -8.40737 141.83661 72.92261 87.13253 8.86335 -78.19236 -3.88251 8.99322 50.48504 -0.34308 -9.54417 -20.01794 -7.61251 -3.70923 -4.08381 53.5631 3.87398 12.68641 -23.97506 -8.087 2.9505 3.74548
0.00075 1e-05 -0.00066 18.8098 -33.30105 -3.78687 54.35037 1.46497 2.5495 -2.84378 -9.38561 -0.93922 136.64819 -79.98208 -79.61518 16.73624 76.49186 -3.92736 -8.43344 142.96581 72.96876 87.13208 9.04529 -74.59821 -2.84016 9.22385 50.43672 -0.4273 -9.97744 -19.99035 -7.58057 -3.67575 -4.06402 53.52987 3.87798 12.74609 -23.97533 -8.0776 2.9465 3.74352
0.00108 5e-05 -0.00088 18.78997 -33.28897 -3.77266 54.41619 1.46732 2.53394 -2.89511 -9.38446 -0.94055 137.00308 -79.99863 -79.20202 16.77413 76.50399 -3.9113 -8.45124 143.99325 73.01233 87.12847 9.19266 -71.80605 -1.97634 9.39207 50.37952 -0.51346 -10.39975 -19.96354 -7.5513 -3.64303 -4.04507 53.48598 3.88059 12.8225 -23.97655 -8.06704 2.94143 3.74094
